<svg width="154" height="154" viewBox="0 0 154 154" fill="none" xmlns="http://www.w3.org/2000/svg">
<circle r="72" transform="matrix(-1 0 0 1 77 77)" stroke="white" stroke-width="10"/>
<rect width="17.6208" height="70.1279" rx="8.81042" transform="matrix(-0.843081 -0.537786 -0.537786 0.843081 102.504 70.252)" fill="white"/>
<rect width="17.6208" height="46.5936" rx="8.81042" transform="matrix(-0.84534 0.534229 0.534229 0.84534 46.8965 79.0767)" fill="white"/>
<rect width="6.60607" height="60.2583" rx="3.30303" transform="matrix(0.00084131 -1 -1 -0.00084131 122.551 60.7485)" fill="white"/>
<path d="M62.3696 47.4984C62.3696 51.0789 77.417 50.7399 93.8634 50.7399C110.31 50.7399 122.551 51.0789 122.551 47.4984C122.551 43.918 109.218 27.3447 92.772 27.3447C76.3256 27.3447 62.3696 43.918 62.3696 47.4984Z" fill="white"/>
<circle r="3.3434" transform="matrix(-1 0 0 1 92.4398 27.3434)" fill="white"/>
</svg>
